# xmcd
# Track frame offsets:
# 150
# 16462
# 36265
#
# Disc length: 662 seconds
# Revision: 0
# Processed by: cddbd v1.4b41PL1 Copyright (c) Steve Scherf et al.
# Submitted via: VisiTrax 2.1.0.26 - For more info visit www.synapsa.com
#
DISCID=1d029403
DTITLE=Brendan Croker - Running on down this road
DYEAR=1900
DGENRE=
TTITLE0=Running on down this road
TTITLE1=Anything I can say
TTITLE2=Take me back baby
EXTD=Silvertone Records
EXTT0=
EXTT1=
EXTT2=
PLAYORDER=
